<?xml version="1.0" encoding="UTF-8"?>
<svg width="73px" height="76px" viewBox="0 0 73 76" version="1.1" xmlns="http://www.w3.org/2000/svg" xmlns:xlink="http://www.w3.org/1999/xlink">
    <!-- Generator: Sketch 42 (36781) - http://www.bohemiancoding.com/sketch -->
    <title>logo_click_whole</title>
    <desc>Created with Sketch.</desc>
    <defs>
        <linearGradient x1="-14.4351876%" y1="64.275%" x2="97.0196503%" y2="30.2116569%" id="linearGradient-1">
            <stop stop-color="#0C9ED3" offset="0%"></stop>
            <stop stop-color="#1C84B4" offset="13.51%"></stop>
            <stop stop-color="#1A2754" offset="80.8%"></stop>
        </linearGradient>
        <linearGradient x1="50.0268714%" y1="97.8812114%" x2="50.0268714%" y2="-4.11383934%" id="linearGradient-2">
            <stop stop-color="#015285" offset="0%"></stop>
            <stop stop-color="#1A2754" offset="100%"></stop>
        </linearGradient>
        <linearGradient x1="136.331639%" y1="17.3879699%" x2="20.8868965%" y2="55.4101504%" id="linearGradient-3">
            <stop stop-color="#3EC4E0" offset="0%"></stop>
            <stop stop-color="#015285" offset="100%"></stop>
        </linearGradient>
        <radialGradient cx="60.5762685%" cy="29.7220512%" fx="60.5762685%" fy="29.7220512%" r="70.6914258%" id="radialGradient-4">
            <stop stop-color="#B0B5B7" offset="0%"></stop>
            <stop stop-color="#77777B" offset="35.42%"></stop>
            <stop stop-color="#434449" offset="79.2%"></stop>
            <stop stop-color="#323338" offset="100%"></stop>
        </radialGradient>
        <linearGradient x1="10.7869919%" y1="105.562176%" x2="66.1152439%" y2="15.4277202%" id="linearGradient-5">
            <stop stop-color="#F5E936" offset="0%"></stop>
            <stop stop-color="#EC2728" offset="100%"></stop>
        </linearGradient>
    </defs>
    <g id="Welcome" stroke="none" stroke-width="1" fill="none" fill-rule="evenodd">
        <g id="Desktop-HD_01" transform="translate(-677.000000, -8909.000000)" fill-rule="nonzero">
            <g id="logo_click_whole" transform="translate(630.000000, 8909.000000)">
                <g id="Group-4" transform="translate(47.000000, 0.000000)">
                    <path d="M68.9816514,40.6788991 C66.6146789,37.8715596 66.1743119,34.8440367 66.8899083,30.9357798 C67.6055046,27.0275229 67.440367,19.2110092 61.2201835,11.6146789 C54.8899083,3.90825688 46.6330275,0.385321101 35.293578,0.385321101 C26.4311927,0.385321101 20.4862385,3.02752294 18.2293578,4.18348624 C34.2477064,-1.76146789 51.8073394,4.23853211 58.5779817,18.5504587 C65.6788991,33.6880734 57.9174312,52.3486239 41.1834862,60.2201835 C35.1834862,63.0275229 28.7981651,64.0733945 22.7981651,63.5779817 C32.4311927,66.9908257 40.0275229,71.0642202 44.706422,75.4678899 C44.9816514,74.6972477 45.9724771,72 47.8440367,69.7981651 C50.1009174,67.2110092 53.7889908,67.5963303 56.6513761,67.8715596 C59.5137615,68.146789 61.8256881,68.2568807 63.2018349,66.8256881 C64.5229358,65.3944954 64.5229358,63.2477064 64.4678899,62.0917431 C64.412844,60.8807339 64.1376147,60.0550459 65.3486239,59.2293578 C66.6146789,58.3486239 66.4495413,57.3577982 66.2844037,56.587156 C66.1743119,55.8715596 64.9633028,55.266055 64.9633028,55.266055 C66.559633,54.7155963 67.3853211,54 67.3853211,52.5688073 C67.3853211,51.7981651 66.6697248,51.1376147 66.4495413,50.5321101 C66.2293578,49.9266055 66.6697248,48.6055046 68.3211009,48.3853211 C70.0275229,48.1651376 71.733945,48.1100917 72.1743119,46.5137615 C72.7247706,44.7522936 71.4036697,43.4862385 68.9816514,40.6788991 Z" id="Shape" fill="url(#linearGradient-1)"></path>
                    <path d="M19.1651376,10.3486239 C25.7706422,5.33944954 34.5229358,6.05504587 35.7889908,6.16513761 C30.1743119,5.33944954 22.5779817,6.55045872 18.0642202,9.41284404 C13.9357798,12 7.3853211,18.4954128 7.11009174,28.4587156 L11.4587156,28.0183486 C10.9082569,22.0733945 12.6697248,15.2477064 19.1651376,10.3486239 Z" id="Shape" fill="url(#linearGradient-2)"></path>
                    <path d="M25.7155963,41.3944954 L21.9724771,49.6513761 C23.2385321,49.9816514 24.559633,50.146789 25.9357798,50.146789 C35.8990826,50.146789 42.0091743,42 42.5045872,35.0091743 C43.0550459,27.4678899 37.5504587,20.8623853 29.9541284,20.8623853 C22.3577982,20.8623853 19.8807339,26.4770642 19.8807339,26.4770642 C21.9174312,24.0550459 25.7706422,22.8990826 29.6238532,24.0550459 C33.8073394,25.3211009 35.8440367,29.559633 35.3486239,33.6880734 C34.7981651,37.7614679 31.7706422,41.0642202 25.7155963,41.3944954 Z" id="Shape" fill="url(#linearGradient-3)"></path>
                    <path d="M47.7889908,48.0550459 C53.1834862,41.8348624 57.6422018,31.4862385 52.6330275,21.0825688 C46.9082569,9.13761468 33.5321101,7.48623853 26.1559633,10.293578 C17.8440367,13.4311927 15.3119266,19.3761468 14.9266055,24.2752294 C14.7614679,26.4770642 15.2018349,27.6330275 15.2018349,27.6880734 C15.2018349,27.6880734 15.4770642,24.7155963 17.5688073,21.6330275 C22.1926606,14.7522936 32.9816514,13.9266055 39.5321101,18.2752294 C47.4587156,23.559633 49.6605505,33.7981651 45.146789,43.0458716 C40.1376147,53.3394495 29.7889908,54.4954128 26.2110092,54.6055046 C22.6330275,54.7155963 18.4495413,53.8348624 14.3761468,52.1284404 C14.3761468,52.1284404 18.4495413,55.5412844 26.4311927,56.3119266 C33.9724771,57.0275229 42.3394495,54.440367 47.7889908,48.0550459 Z" id="Shape" fill="url(#radialGradient-4)"></path>
                    <polygon id="Shape" fill="url(#linearGradient-5)" points="18.3394495 49.4311927 27.2018349 29.8899083 5.89908257 31.9816514 9.42201835 36.9357798 0.119266055 43.6513761 5.4587156 51.1376147 14.8165138 44.4770642"></polygon>
                </g>
            </g>
        </g>
    </g>
</svg>