<svg xmlns="http://www.w3.org/2000/svg" xmlns:xlink="http://www.w3.org/1999/xlink" viewBox="0 0 300 300"><defs><style>.cls-1{fill:url(#linear-gradient);}.cls-2{fill:#7ff2ff;}.cls-3{fill:#fff;}</style><linearGradient id="linear-gradient" x1="150" y1="300" x2="150" gradientUnits="userSpaceOnUse"><stop offset="0" stop-color="#fe4e00"/><stop offset="1" stop-color="#ffa200"/></linearGradient></defs><title>icon</title><g id="Layer_2" data-name="Layer 2"><g id="Layer_1-2" data-name="Layer 1"><rect class="cls-1" width="300" height="300" rx="70"/><path class="cls-2" d="M76.32,180a3,3,0,0,0,1.77.58,3,3,0,0,0,2.42-1.23c23.23-31.79,64.05-54.1,64.46-54.32a3,3,0,0,0,1.57-2.64V63.28a3,3,0,0,0-6,0v57.38a255.71,255.71,0,0,0-31.64,21.55c-2.2,1.24-14.47,7.5-26.8-.2a3,3,0,0,0-3.18,5.09,30.1,30.1,0,0,0,16.19,4.69c.91,0,1.8,0,2.66-.12a163.65,163.65,0,0,0-22.1,24.17A3,3,0,0,0,76.32,180Z"/><path class="cls-2" d="M155,125.06c.41.22,41.23,22.53,64.46,54.32a3,3,0,0,0,2.42,1.23,3,3,0,0,0,2.42-4.77,163.65,163.65,0,0,0-22.1-24.17c.86.07,1.75.12,2.66.12a30.1,30.1,0,0,0,16.19-4.69A3,3,0,0,0,217.9,142c-12.33,7.7-24.6,1.44-26.8.2a255.71,255.71,0,0,0-31.64-21.55V63.28a3,3,0,0,0-6,0v59.14A3,3,0,0,0,155,125.06Z"/><path class="cls-2" d="M224.38,196.92c-31.4-45.6-71.44-64.26-73.13-65l-.11,0-.29-.1-.27-.07-.29,0-.29,0-.29,0-.29,0-.27.07-.29.1-.11,0c-1.69.77-41.73,19.43-73.13,65a3,3,0,0,0,.77,4.17,3,3,0,0,0,4.17-.77,198.28,198.28,0,0,1,16.73-21c-.41,10.76,2.89,17,3.06,17.35a3,3,0,0,0,5.29-2.84c0-.08-4.1-8-1.53-21.39a2.45,2.45,0,0,0,0-.27c21-20.89,40.8-31.61,45.87-34.17,5.07,2.56,24.9,13.28,45.87,34.17a2.45,2.45,0,0,0,0,.27c2.57,13.38-1.49,21.31-1.53,21.39a3,3,0,0,0,5.29,2.84c.17-.32,3.47-6.59,3.06-17.35a198.28,198.28,0,0,1,16.73,21,3,3,0,1,0,4.94-3.4Z"/><path class="cls-3" d="M131.74,156.85l-9.07,7.07c2.57,26.66-2.34,45.21-14.65,55.12-16.42,13.21-42.19,8-51.13,5.59-1.57-33.5,1.71-61.28,9.76-82.61,6.33-16.78,15.41-29.21,27-37,12.25-8.19,23.22-8.2,26.16-7.4,1.77,3.51,2.74,14.15,2.54,22.66l-.12,5,10.14-7.23c.07-6.47-.29-20.84-4.93-27-4-5.35-16.79-4.37-26.77-.73-11.08,4-26.75,13.74-38.48,37C49.76,152,44.69,186.05,47.09,228.71a5,5,0,0,0,3.36,4.44,96.68,96.68,0,0,0,28.79,4.57c11.52,0,24.52-2.44,35-10.86,15.65-12.57,21.72-35.12,18.06-67.05Z"/><path class="cls-3" d="M168.26,156.85l9.07,7.07c-2.57,26.66,2.34,45.21,14.65,55.12,16.42,13.21,42.19,8,51.13,5.59,1.57-33.5-1.71-61.28-9.76-82.61-6.33-16.78-15.41-29.21-27-37-12.25-8.19-23.22-8.2-26.16-7.4-1.77,3.51-2.74,14.15-2.54,22.66l.12,5-10.14-7.23c-.07-6.47.29-20.84,4.93-27,4-5.35,16.79-4.37,26.77-.73,11.08,4,26.75,13.74,38.48,37,12.41,24.6,17.48,58.7,15.08,101.36a5,5,0,0,1-3.36,4.44,96.68,96.68,0,0,1-28.79,4.57c-11.52,0-24.52-2.44-35-10.86-15.65-12.57-21.72-35.12-18.06-67.05Z"/></g></g></svg>